<?xml version="1.0" encoding="UTF-8" standalone="no"?>
<svg
   xmlns:dc="http://purl.org/dc/elements/1.1/"
   xmlns:cc="http://creativecommons.org/ns#"
   xmlns:rdf="http://www.w3.org/1999/02/22-rdf-syntax-ns#"
   xmlns:svg="http://www.w3.org/2000/svg"
   xmlns="http://www.w3.org/2000/svg"
   xmlns:sodipodi="http://sodipodi.sourceforge.net/DTD/sodipodi-0.dtd"
   xmlns:inkscape="http://www.inkscape.org/namespaces/inkscape"
   version="1.1"
   id="svgTkkrLab"
   viewBox="0 0 116.01282 93.750004"
   height="100"
   width="123.747"
   sodipodi:docname="logo.svg"
   inkscape:version="0.92.2 2405546, 2018-03-11">
  <sodipodi:namedview
     pagecolor="#ffffff"
     bordercolor="#666666"
     borderopacity="1"
     objecttolerance="10"
     gridtolerance="10"
     guidetolerance="10"
     inkscape:pageopacity="0"
     inkscape:pageshadow="2"
     inkscape:window-width="1920"
     inkscape:window-height="1015"
     id="namedview17"
     showgrid="false"
     inkscape:zoom="1.135303"
     inkscape:cx="-127.23878"
     inkscape:cy="103.93701"
     inkscape:window-x="0"
     inkscape:window-y="0"
     inkscape:window-maximized="1"
     inkscape:current-layer="svgTkkrLab"
     units="px" />
  <defs
     id="defsTkkrLab" />
  <metadata
     id="metadataTkkrLab">
    <rdf:RDF>
      <cc:Work
         rdf:about="">
        <dc:format>image/svg+xml</dc:format>
        <dc:type
           rdf:resource="http://purl.org/dc/dcmitype/StillImage" />
        <dc:title></dc:title>
      </cc:Work>
    </rdf:RDF>
  </metadata>
  <path
     style="color:#000000;fill:#000000;stroke:none;stroke-width:0.71103597"
     d="m 66.347761,6.7722133 c -0.717794,-1.22808 -2.018407,-2.01079 -3.522223,-2.08049 -1.503818,-0.0697 -2.987804,0.73166 -3.776223,2.08058 C 44.243186,32.119193 29.438221,57.466773 14.63319,82.814323 c -1.621564,2.77683 0.405498,6.24758 3.649214,6.2482 29.607767,-4e-4 59.215533,0 88.823306,0 3.24372,-6.2e-4 5.27078,-3.47137 3.64921,-6.2482 C 95.313505,56.364383 82.187414,33.890273 66.347761,6.7722133 Z"
     id="triangle_outset"
     inkscape:connector-curvature="0" />
  <path
     style="color:#ffe700;fill:#ffe700;stroke:none;stroke-width:0.71103597"
     d="M 62.696885,9.6429233 C 77.118542,34.465213 91.538808,59.288313 105.95917,84.111353 c -28.840977,0 -57.681939,0 -86.522902,0 14.42021,-24.8228 28.840413,-49.64562 43.260617,-74.4684297 z"
     id="triangle_inset"
     inkscape:connector-curvature="0" />
  <path
     style="color:#000000;fill:#000000;stroke:none;stroke-width:0.71104604"
     d="m 64.779347,79.356953 c -0.300027,-0.301704 -0.359021,-2.426324 -0.09186,-3.350828 0.08259,-0.284864 0.914401,-1.401529 1.849027,-2.479425 1.338317,-1.543942 2.553579,-3.290996 2.553579,-3.672762 0,-0.0245 -0.310981,-0.151702 -0.690225,-0.284014 -0.39441,-0.136532 -0.897546,-0.589098 -1.172282,-1.053455 -1.143635,-1.198417 -0.841924,-2.84181 -1.208525,-4.25007 -0.06827,0.189623 -0.417173,0.941373 0.113772,2.938722 0.06405,0.241033 -0.491332,0.107881 -0.531787,0.612688 l -0.07416,0.916093 -2.873831,0.0573 c -1.580185,0.032 -3.102218,0.175293 -3.380331,0.319415 -0.280641,0.144952 -1.015532,0.466046 -1.100651,0.860462 -0.08427,0.391045 0.123044,0.572238 0.482904,1.811096 -1.352638,0.310984 -2.302434,0.008 -3.489048,-0.485427 -0.07838,-0.473637 0.160126,-1.047555 0.248616,-1.634964 0.126416,-0.842762 0.385144,-1.098965 1.168915,-1.879366 0,0 0.706237,-0.470267 1.146161,-0.633759 0.640502,-0.238504 1.894536,-0.213223 1.894536,-0.213223 l 2.046234,0.144962 0.107874,-1.868417 c 0.09017,-1.541412 0.200578,-1.964488 0.635445,-2.426324 l 0.526728,-0.558748 -0.546112,-0.106192 c -3.943298,-0.76607 -4.005663,-0.789671 -5.604388,-2.107749 -0.258729,-0.213223 -0.602577,-0.424756 -1.16133,-0.900073 0.664941,-0.489647 0.679269,-0.484597 1.206839,-1.216117 -1.392248,1.070315 -2.049604,1.101495 -2.749099,1.045874 -0.855407,-0.0674 -1.710814,-0.251983 -1.902122,-0.411265 -0.191307,-0.157603 -0.3902,-0.246094 -0.443294,-0.192993 -0.182037,0.181192 -0.648086,1.477361 -0.34132,3.066813 0.223333,1.019755 0.482062,2.223222 0.664099,2.679988 0.582351,1.466421 1.302915,1.020595 2.223215,1.720935 -0.116302,1.535522 -0.671685,2.059719 -1.784977,2.471835 -0.983507,-0.524208 -2.267881,-2.183611 -2.267881,-2.183611 0,0 -0.482061,-0.982664 -0.711294,-1.39562 -0.685167,-1.236328 -0.549482,-1.026485 -0.534312,-4.555145 0.01264,-3.125814 0.06995,-3.647481 0.477847,-4.353721 0.482904,-0.836022 1.440286,-1.180717 1.996511,-0.720561 0.287383,0.237654 1.419216,0.375026 2.512282,0.303395 0.349748,-0.0228 -0.169395,0.0177 0.68264,-0.0186 -0.08259,-0.425596 0.146641,-0.897542 0.248616,-1.232967 -0.694438,-0.184563 -0.797256,-0.304234 -1.007105,-0.457617 -0.87816,-0.772821 -1.508549,-1.826275 -2.188661,-2.83591 -0.307609,-0.465206 -0.173609,-1.247287 -1.850712,-0.0177 -1.44197,1.056825 -0.871418,1.081265 -0.809054,1.516131 0.131471,0.909343 -1.708285,2.349634 -2.577176,2.017579 -0.276427,-0.106191 -0.279798,-0.337945 -0.01855,-1.575972 0.167711,-0.798942 0.406213,-1.717555 0.529257,-2.041179 0.209849,-0.547798 2.014209,-2.216472 2.794609,-2.582227 0.189623,-0.0893 0.602577,-0.311824 0.919457,-0.493857 0.896703,-0.516627 1.5667,-0.417176 2.015052,0.300024 0.764387,0.969174 1.731039,2.133881 3.563211,2.964842 0.493859,-1.006264 2.236699,-2.946301 3.59355,-3.143514 0.140741,0 0.255358,-0.206473 0.255358,-0.457617 -0.06911,-0.478696 -0.15254,-0.71467 -0.287383,-1.060205 -0.128943,-0.604258 -0.209006,-0.544427 -1.93836,-0.544427 -0.970866,0 -2.119555,0.127261 -2.551893,0.283174 -0.718035,0.258723 -1.268362,-0.358175 -0.94474,-0.844452 -0.314351,0.0657 -0.823381,0.103661 -1.004576,0.103661 -0.480376,0 -1.064412,-0.72815 -1.22538,-1.527932 -0.123886,-0.617748 -0.02444,-0.790521 0.883218,-1.531311 0.562123,-0.459307 1.09728,-0.835182 1.189141,-0.835182 0.09102,0 0.763545,-0.458457 1.493379,-1.018055 0.730679,-0.559598 1.66699,-0.996154 1.994826,-1.184086 1.009633,-0.576449 2.861187,-1.477371 2.861187,-1.477371 0,0 0.194679,-1.054295 1.243079,-1.961108 0.511558,0.679269 0.750904,1.098965 0.960753,2.0968 1.086324,0.483746 0.737419,0.375875 1.452926,0.898382 1.377081,1.007105 1.929093,1.855777 2.406096,3.702273 0.400311,1.549002 0.241874,3.756203 -0.426437,5.931384 -0.804845,2.616787 -0.243557,5.445097 1.310501,6.608114 1.042496,0.779561 2.921864,1.688904 3.863233,1.869256 1.237183,0.236814 2.330246,0.753431 3.150262,1.826276 0.820005,1.072835 0.668311,0.921143 0.878163,1.785816 0.396943,0.0952 2.227422,-2.992663 -1.859144,-4.572005 -1.846505,-0.71382 -3.405617,-2.547676 -3.913805,-4.455694 -0.257887,-0.969183 0.199735,-2.028538 0.600045,-2.948831 0.640508,-1.468951 1.509394,-2.447395 2.798835,-3.914656 0.662409,-0.754271 1.788347,-1.763065 1.338311,-2.694318 -0.450036,-0.932093 -2.176868,-1.166387 -3.135098,1.064415 -0.185405,-1.490011 0.76018,-2.7904 1.70745,-3.062604 0.947269,-0.272213 1.817847,-0.287384 2.77438,0.802312 0.956546,1.088845 1.271737,2.543466 -0.180346,4.775948 -1.452083,2.232481 -2.608357,3.904535 -2.454136,4.581275 0.201425,0.882372 0.541057,1.237177 1.783293,1.863346 1.99651,1.005424 3.824468,3.580911 4.197818,5.912844 0.08511,0.530097 0.03705,1.528772 -0.107035,2.219001 -0.210689,1.008785 -0.444983,1.420901 -1.192512,2.09258 -0.608479,0.548648 -1.080424,0.798951 -1.366127,0.7231 -0.293276,-0.0759 -0.436555,0.006 -0.436555,0.251144 0,0.909343 -0.99783,2.347103 -2.273772,3.278356 l -1.329888,0.970864 0.578143,0.879843 c 0.317723,0.483747 0.663257,0.879852 0.767759,0.879852 0.604256,0 -0.0084,1.066095 -1.338323,2.329403 -0.840235,0.798102 -2.269561,2.379124 -3.177224,3.51349 -1.556585,1.945948 -1.738623,1.506861 -1.98724,2.392604 -0.14074,0.501447 0.487964,1.018065 0.659047,1.822066 -1.073686,0.262094 -2.426327,0.206473 -3.108117,0.217433 z"
     id="horse"
     inkscape:connector-curvature="0" />
</svg>
