<?xml version="1.0" encoding="UTF-8" standalone="no"?>
<svg
   xmlns:dc="http://purl.org/dc/elements/1.1/"
   xmlns:cc="http://creativecommons.org/ns#"
   xmlns:rdf="http://www.w3.org/1999/02/22-rdf-syntax-ns#"
   xmlns:svg="http://www.w3.org/2000/svg"
   xmlns="http://www.w3.org/2000/svg"
   xmlns:sodipodi="http://sodipodi.sourceforge.net/DTD/sodipodi-0.dtd"
   xmlns:inkscape="http://www.inkscape.org/namespaces/inkscape"
   version="1.1"
   id="svgTkkrLab"
   viewBox="0 0 194.88189 194.88189"
   height="55mm"
   width="55mm"
   sodipodi:docname="logo.svg"
   inkscape:version="0.92.2 2405546, 2018-03-11">
  <sodipodi:namedview
     pagecolor="#ffffff"
     bordercolor="#666666"
     borderopacity="1"
     objecttolerance="10"
     gridtolerance="10"
     guidetolerance="10"
     inkscape:pageopacity="0"
     inkscape:pageshadow="2"
     inkscape:window-width="723"
     inkscape:window-height="480"
     id="namedview17"
     showgrid="false"
     inkscape:zoom="1.135303"
     inkscape:cx="139.65032"
     inkscape:cy="103.93701"
     inkscape:window-x="395"
     inkscape:window-y="84"
     inkscape:window-maximized="0"
     inkscape:current-layer="svgTkkrLab" />
  <defs
     id="defsTkkrLab" />
  <metadata
     id="metadataTkkrLab">
    <rdf:RDF>
      <cc:Work
         rdf:about="">
        <dc:format>image/svg+xml</dc:format>
        <dc:type
           rdf:resource="http://purl.org/dc/dcmitype/StillImage" />
        <dc:title></dc:title>
      </cc:Work>
    </rdf:RDF>
  </metadata>
  <g
     id="g31"
     transform="matrix(1.1398269,0,0,1.1398269,-0.70249886,-13.622502)">
    <path
       inkscape:connector-curvature="0"
       id="triangle_outset"
       d="m 91.241605,20.644311 c -1.009502,-1.727166 -2.838681,-2.827978 -4.953647,-2.926002 -2.114967,-0.09802 -4.202043,1.02901 -5.310875,2.926121 -20.823318,35.647841 -41.644999,71.296638 -62.466774,106.94538 -2.280566,3.90534 0.570291,8.7866 5.132249,8.78747 41.640321,-5.6e-4 83.280642,0 124.920962,0 4.56196,-8.7e-4 7.41281,-4.88213 5.13225,-8.78747 C 131.97899,90.390668 113.51847,58.783113 91.241605,20.644311 Z"
       style="color:#000000;fill:#000000;stroke:none" />
    <path
       inkscape:connector-curvature="0"
       id="triangle_inset"
       d="m 86.107021,24.681676 c 20.282599,34.910027 40.563239,69.821194 60.843999,104.732294 -40.56189,0 -81.123779,0 -121.685669,0 C 45.545914,94.503209 65.826467,59.592442 86.107021,24.681676 Z"
       style="color:#ffe700;fill:#ffe700;stroke:none" />
    <path
       inkscape:connector-curvature="0"
       id="horse"
       d="m 89.035422,122.72738 c -0.421948,-0.42432 -0.504915,-3.41233 -0.129192,-4.71254 0.116154,-0.40062 1.285993,-1.97107 2.600431,-3.487 1.882172,-2.17137 3.591298,-4.62839 3.591298,-5.1653 0,-0.0344 -0.437356,-0.21335 -0.970717,-0.39943 -0.554696,-0.19201 -1.262288,-0.82849 -1.648678,-1.48156 -1.60838,-1.68542 -1.184062,-3.99665 -1.699644,-5.9772 -0.09601,0.26668 -0.586697,1.32392 0.160008,4.13295 0.09008,0.33899 -0.690999,0.15172 -0.747891,0.86168 l -0.104301,1.28836 -4.041692,0.0806 c -2.222338,0.045 -4.362894,0.24653 -4.754025,0.44921 -0.394687,0.20386 -1.428222,0.65544 -1.547932,1.21014 -0.118525,0.54995 0.173046,0.80478 0.679146,2.54709 -1.902321,0.43736 -3.238094,0.0107 -4.906922,-0.6827 -0.110228,-0.66611 0.225197,-1.47326 0.349648,-2.29938 0.177787,-1.18524 0.541658,-1.54556 1.643937,-2.6431 0,0 0.993237,-0.66137 1.611936,-0.8913 0.900788,-0.33543 2.664435,-0.29987 2.664435,-0.29987 l 2.877779,0.20386 0.151712,-2.62769 c 0.126821,-2.16782 0.282089,-2.76281 0.893676,-3.412327 l 0.740779,-0.785818 -0.76804,-0.149342 c -5.54577,-1.077389 -5.633478,-1.110576 -7.881891,-2.964302 -0.363871,-0.299867 -0.847452,-0.597364 -1.63327,-1.265843 0.93516,-0.688629 0.955309,-0.681517 1.697273,-1.710312 -1.958027,1.505264 -2.88252,1.549118 -3.866275,1.470892 -1.203025,-0.09482 -2.406051,-0.354389 -2.675102,-0.578401 -0.269051,-0.221641 -0.548769,-0.346092 -0.62344,-0.271421 -0.256013,0.254828 -0.911455,2.077737 -0.480025,4.313113 0.314091,1.434149 0.677961,3.126681 0.933975,3.769081 0.819005,2.06233 1.832391,1.43534 3.126681,2.42028 -0.163564,2.15952 -0.944642,2.89674 -2.510353,3.47633 -1.383183,-0.73723 -3.189499,-3.07098 -3.189499,-3.07098 0,0 -0.677961,-1.382 -1.000348,-1.96277 -0.963606,-1.73875 -0.772781,-1.44363 -0.751447,-6.406256 0.01778,-4.39608 0.09838,-5.129748 0.672035,-6.122985 0.679147,-1.175764 2.025587,-1.66053 2.80785,-1.013386 0.404169,0.33424 1.995955,0.527435 3.533221,0.426689 0.491877,-0.032 -0.238235,0.02489 0.960049,-0.02608 -0.116154,-0.59855 0.206233,-1.262288 0.349648,-1.734016 -0.976643,-0.259569 -1.121243,-0.427874 -1.41637,-0.643589 -1.235027,-1.086872 -2.121591,-2.56843 -3.078086,-3.988356 -0.432615,-0.654256 -0.24416,-1.754165 -2.602802,-0.02489 -2.027957,1.4863 -1.225545,1.520672 -1.137837,2.132259 0.184899,1.278881 -2.402495,3.304468 -3.624484,2.837481 -0.388761,-0.149341 -0.393502,-0.475284 -0.02608,-2.216412 0.235864,-1.123614 0.571289,-2.415533 0.744335,-2.870667 0.295127,-0.770411 2.83274,-3.1172 3.930279,-3.631597 0.26668,-0.125636 0.847451,-0.438541 1.293104,-0.694554 1.261103,-0.726557 2.203374,-0.586697 2.833925,0.421948 1.075019,1.363033 2.434497,3.001045 5.011224,4.169698 0.694554,-1.415185 3.145645,-4.143623 5.053892,-4.420971 0.197936,0 0.35913,-0.290385 0.35913,-0.643589 -0.09719,-0.67322 -0.21453,-1.005089 -0.404169,-1.49104 -0.181343,-0.849822 -0.293942,-0.76567 -2.726068,-0.76567 -1.365404,0 -2.980896,0.178973 -3.588927,0.398243 -1.009831,0.363871 -1.783797,-0.50373 -1.328662,-1.187617 -0.442097,0.09245 -1.157986,0.145785 -1.412814,0.145785 -0.675591,0 -1.496967,-1.024053 -1.723349,-2.148852 -0.174231,-0.868786 -0.03437,-1.111762 1.242139,-2.153594 0.790559,-0.645959 1.543191,-1.174579 1.672383,-1.174579 0.128006,0 1.073833,-0.644774 2.100257,-1.431778 1.027609,-0.787004 2.344418,-1.400962 2.805479,-1.665272 1.419926,-0.810709 4.023913,-2.077738 4.023913,-2.077738 0,0 0.273792,-1.482744 1.748239,-2.758069 0.719445,0.955309 1.056055,1.545562 1.351182,2.948894 1.527783,0.680332 1.037091,0.52862 2.043365,1.263473 1.936693,1.41637 2.71303,2.609914 3.38388,5.206789 0.562992,2.178484 0.340166,5.282645 -0.599735,8.341767 -1.131911,3.680192 -0.342536,7.65788 1.843059,9.293521 1.46615,1.096353 4.10925,2.375234 5.433171,2.628877 1.739952,0.333054 3.277212,1.059611 4.430462,2.56843 1.15324,1.508819 0.9399,1.295475 1.23503,2.511538 0.55825,0.133933 3.1326,-4.208812 -2.61466,-6.429964 -2.596882,-1.003904 -4.789589,-3.583001 -5.504293,-6.2664 -0.362685,-1.363034 0.280904,-2.852889 0.843896,-4.147179 0.900787,-2.065885 2.122777,-3.441956 3.936217,-5.505471 0.9316,-1.060796 2.51509,-2.479536 1.88217,-3.789234 -0.63292,-1.310883 -3.061503,-1.640382 -4.409129,1.496967 -0.260754,-2.095517 1.069093,-3.924353 2.401319,-4.307187 1.33222,-0.382835 2.55658,-0.404169 3.90183,1.128355 1.34526,1.531339 1.78854,3.577075 -0.25364,6.716793 -2.04218,3.139719 -3.66834,5.491249 -3.45144,6.443002 0.28328,1.240953 0.76093,1.739942 2.50798,2.620581 2.80785,1.413999 5.37865,5.036113 5.90372,8.315691 0.11971,0.745521 0.0521,2.150038 -0.15053,3.120755 -0.29631,1.418741 -0.62581,1.998326 -1.67712,2.942968 -0.85575,0.771596 -1.51949,1.123614 -1.92129,1.016942 -0.41246,-0.106672 -0.61396,0.0083 -0.61396,0.353203 0,1.278883 -1.40333,3.300913 -3.19779,4.610613 l -1.87033,1.3654 0.81309,1.2374 c 0.44684,0.68033 0.93279,1.2374 1.07976,1.2374 0.84982,0 -0.0118,1.49933 -1.882183,3.27602 -1.181691,1.12243 -3.191869,3.34595 -4.46838,4.94129 -2.189151,2.73674 -2.445164,2.11922 -2.794812,3.36492 -0.197936,0.70522 0.686258,1.43178 0.926863,2.5625 -1.510005,0.36861 -3.412326,0.29039 -4.37119,0.3058 z"
       style="color:#000000;fill:#000000;stroke:none" />
    <rect
       id="box_outset"
       ry="2.7639413"
       y="138.9767"
       x="17.716541"
       height="38.188652"
       width="136.7834"
       style="color:#000000;fill:#000000;stroke:none" />
    <rect
       id="box_inset"
       y="144.51602"
       x="23.278744"
       height="27.110001"
       width="125.659"
       style="color:#ffe700;fill:#ffe700;stroke:none" />
    <path
       inkscape:connector-curvature="0"
       id="label_tkkrlab_T"
       d="m 34.689248,151.35777 v 14.58682 c 0,0.74317 0.325943,1.16155 1.165098,1.16155 0.839154,0 1.165097,-0.4184 1.165097,-1.16155 v -14.58682 h 2.261451 v 0.83678 c 0,0.74316 0.325943,1.16154 1.165098,1.16154 0.839154,0 1.165097,-0.41839 1.165097,-1.16154 v -3.15987 H 30.096417 v 3.15987 c 0,0.74316 0.327128,1.16154 1.166282,1.16154 0.839155,0 1.165098,-0.41839 1.165098,-1.16154 v -0.83678 h 2.261451"
       style="color:#000000;fill:#000000;stroke:none" />
    <path
       inkscape:connector-curvature="0"
       id="label_tkkrlab_k1"
       d="m 49.413569,159.78962 v -8.26947 c 0,-0.76685 -0.162379,-1.53372 -1.118873,-1.53372 -0.955309,0 -1.118873,0.76686 -1.118873,1.53372 v 14.05229 c 0,0.76684 0.163564,1.53252 1.118873,1.53252 0.956494,0 1.118873,-0.76567 1.118873,-1.53252 v -2.83393 l 0.932789,-0.83678 5.616885,4.6675 c 0.325943,0.25601 0.605661,0.53455 1.048943,0.53455 0.629366,0 1.118873,-0.51203 1.118873,-1.13785 0,-0.58196 -0.373352,-0.83677 -0.79293,-1.18525 l -5.267237,-4.36645 4.334448,-3.57826 c 0.395872,-0.32476 0.74552,-0.57958 0.74552,-1.11413 0,-0.627 -0.489507,-1.13902 -1.117688,-1.13902 -0.536916,0 -1.095168,0.55825 -1.492225,0.90671 l -5.127378,4.30008"
       style="color:#000000;fill:#000000;stroke:none" />
    <path
       inkscape:connector-curvature="0"
       id="label_tkkrlab_k2"
       d="m 66.210887,159.78962 v -8.26947 c 0,-0.76685 -0.163564,-1.53372 -1.117688,-1.53372 -0.956494,0 -1.120058,0.76686 -1.120058,1.53372 v 14.05229 c 0,0.76684 0.163564,1.53252 1.120058,1.53252 0.955309,0 1.117688,-0.76567 1.117688,-1.53252 v -2.83393 l 0.932789,-0.83678 5.616885,4.6675 c 0.325943,0.25601 0.605661,0.53455 1.048943,0.53455 0.629366,0 1.118873,-0.51203 1.118873,-1.13785 0,-0.58196 -0.372167,-0.83677 -0.79293,-1.18525 l -5.267237,-4.36645 4.335633,-3.57826 c 0.397058,-0.32476 0.746705,-0.57958 0.746705,-1.11413 0,-0.627 -0.489506,-1.13902 -1.118873,-1.13902 -0.535731,0 -1.095168,0.55825 -1.492225,0.90671 l -5.128563,4.30008"
       style="color:#000000;fill:#000000;stroke:none" />
    <path
       inkscape:connector-curvature="0"
       id="label_tkkrlab_r"
       d="m 80.771644,165.57362 c 0,0.76685 0.162379,1.53253 1.118873,1.53253 0.955309,0 1.117688,-0.76567 1.117688,-1.53253 v -5.64414 l 3.12431,-2.57793 c 0.395873,-0.32475 0.699296,-0.53453 1.118873,-0.53453 h 0.651886 c 0.536917,0 1.072648,0 1.352367,0.39468 0.232308,0.32477 0.232308,0.60447 0.232308,0.97547 0,0.71944 0.325943,1.37014 1.141393,1.37014 0.956494,0 1.096353,-0.79056 1.096353,-1.55623 0,-1.02168 -0.257199,-1.78854 -1.002719,-2.53169 -0.605661,-0.60447 -1.328662,-0.883 -2.191521,-0.883 h -1.792093 c -0.699296,0 -1.352367,0.44209 -1.981733,0.95293 l -1.748239,1.43889 v -0.90552 c 0,-0.74315 -0.232309,-1.48749 -1.117688,-1.48749 -1.026424,0 -1.118873,0.83678 -1.118873,1.64986 v 9.33856"
       style="color:#000000;fill:#000000;stroke:none" />
    <path
       inkscape:connector-curvature="0"
       id="label_tkkrlab_L"
       d="m 99.620624,164.78306 v -14.58683 c 0,-0.74315 -0.325943,-1.16154 -1.165098,-1.16154 -0.839154,0 -1.165097,0.41839 -1.165097,1.16154 v 16.90992 h 10.348391 c 0.60566,0 1.1651,-0.32476 1.1651,-1.16154 0,-0.83679 -0.55944,-1.16155 -1.1651,-1.16155 h -8.018196"
       style="color:#000000;fill:#000000;stroke:none" />
    <path
       inkscape:connector-curvature="0"
       id="label_tkkrlab_a"
       d="m 120.89464,156.81582 c 1.60838,0 1.98173,0.27855 1.98173,1.95092 v 0.51084 h -4.80144 c -0.97901,0 -1.84068,0.16358 -2.60991,0.83678 -0.83915,0.74315 -1.09635,1.41637 -1.09635,2.48547 v 0.97546 c 0,1.16154 0.23349,1.97462 1.16509,2.74147 0.81545,0.67322 1.53845,0.78938 2.54117,0.78938 h 2.14412 c 0.723,0 0.74552,0 1.37488,-0.32476 l 1.53845,-0.79056 c -0.0237,0.62699 0.55944,1.11532 1.14139,1.11532 0.74552,0 1.07265,-0.6507 1.04895,-1.30141 l -0.23231,-7.57135 c -0.0237,-1.11532 -0.13986,-1.78972 -1.00272,-2.64903 -0.88656,-0.88182 -1.72572,-0.99798 -2.89082,-0.99798 h -3.07571 c -0.74552,0 -1.53845,0.16357 -1.53845,1.11532 0,0.97546 0.88656,1.11413 1.53845,1.11413 h 2.77348 m 0.51321,4.6924 c 1.23502,0 1.58467,0.37216 1.58467,1.60363 v 0.48833 l -2.47005,1.27651 h -2.47006 c -0.53573,0 -1.44481,-0.16238 -1.44481,-0.90553 v -1.4863 c 0,-0.81427 0.88538,-0.97546 1.49222,-0.97546 h 3.30803"
       style="color:#000000;fill:#000000;stroke:none" />
    <path
       inkscape:connector-curvature="0"
       id="label_tkkrlab_b"
       d="m 133.40373,151.52015 c 0,-0.76685 -0.16356,-1.53372 -1.11769,-1.53372 -0.95531,0 -1.11887,0.76686 -1.11887,1.53372 v 14.02976 c 0,0.76685 0.16356,1.55623 1.11887,1.55623 0.88538,0 1.11769,-0.76567 1.11769,-1.4863 v -0.13867 l 0.51321,0.48833 c 0.62818,0.57958 1.25873,1.13783 2.16663,1.13783 h 2.30768 c 0.55944,0 1.21251,-0.34846 1.74824,-0.78937 l 0.76922,-0.6507 c 0.88657,-0.76686 1.21133,-1.39267 1.21133,-2.57791 v -4.48379 c 0,-1.18406 -0.32476,-1.81224 -1.21133,-2.57791 l -0.76922,-0.64952 c -0.55825,-0.46462 -1.07146,-0.79056 -1.65461,-0.79056 h -2.47005 c -1.02524,0 -1.46971,0.48832 -2.21523,1.23146 l -0.39587,0.39469 v -4.69358 m 0,8.26947 c 0,-0.67322 0.30342,-1.02169 0.67678,-1.32392 l 1.44481,-1.25399 c 0.25602,-0.2323 0.62937,-0.39468 0.93279,-0.39468 h 1.56216 c 0.23231,0 0.39705,0.0699 0.53573,0.18608 l 1.02642,0.78938 c 0.18609,0.13986 0.30224,0.48832 0.30224,0.92923 v 3.94923 c 0,0.4421 -0.0237,0.97547 -0.27972,1.18406 l -0.97901,0.81308 c -0.16357,0.13986 -0.37335,0.20861 -0.6993,0.20861 h -1.70083 c -0.23349,0 -0.58314,-0.32476 -0.86286,-0.55707 l -1.28243,-1.0928 c -0.58314,-0.48713 -0.67678,-0.76565 -0.67678,-1.4863 v -1.9509"
       style="color:#000000;fill:#000000;stroke:none" />
  </g>
</svg>
